<svg width="75" height="19" viewBox="0 0 75 19" fill="none" xmlns="http://www.w3.org/2000/svg">
<path d="M12.1791 15.5L10.7166 16.9437C10.4291 17.2312 10.0791 17.375 9.66663 17.375C9.25413 17.375 8.90413 17.2312 8.61663 16.9437L7.15413 15.5H5.16663C4.75413 15.5 4.40088 15.353 4.10688 15.059C3.81288 14.765 3.66613 14.412 3.66663 14V12.0125L2.22288 10.55C1.93538 10.2625 1.79163 9.9125 1.79163 9.5C1.79163 9.0875 1.93538 8.7375 2.22288 8.45L3.66663 6.9875V5C3.66663 4.5875 3.81363 4.23425 4.10763 3.94025C4.40163 3.64625 4.75463 3.4995 5.16663 3.5H7.15413L8.61663 2.05625C8.90413 1.76875 9.25413 1.625 9.66663 1.625C10.0791 1.625 10.4291 1.76875 10.7166 2.05625L12.1791 3.5H14.1666C14.5791 3.5 14.9324 3.647 15.2264 3.941C15.5204 4.235 15.6671 4.588 15.6666 5V6.9875L17.1104 8.45C17.3979 8.7375 17.5416 9.0875 17.5416 9.5C17.5416 9.9125 17.3979 10.2625 17.1104 10.55L15.6666 12.0125V14C15.6666 14.4125 15.5196 14.7657 15.2256 15.0597C14.9316 15.3538 14.5786 15.5005 14.1666 15.5H12.1791ZM9.66663 11.3563L11.1104 12.2188C11.2479 12.3062 11.3821 12.3033 11.5131 12.2098C11.6441 12.1163 11.6911 11.988 11.6541 11.825L11.2791 10.1938L12.5541 9.0875C12.6791 8.975 12.7166 8.84075 12.6666 8.68475C12.6166 8.52875 12.5041 8.44425 12.3291 8.43125L10.6604 8.3L10.0041 6.74375C9.94163 6.59375 9.82913 6.51875 9.66663 6.51875C9.50413 6.51875 9.39163 6.59375 9.32913 6.74375L8.67288 8.3L7.00413 8.43125C6.82913 8.44375 6.71663 8.52825 6.66663 8.68475C6.61663 8.84125 6.65413 8.9755 6.77913 9.0875L8.05413 10.1938L7.67913 11.825C7.64163 11.9875 7.68863 12.1158 7.82013 12.2098C7.95163 12.3038 8.08588 12.3068 8.22288 12.2188L9.66663 11.3563Z" fill="#B16C4C"/>
<path d="M40.1791 15.5L38.7166 16.9437C38.4291 17.2312 38.0791 17.375 37.6666 17.375C37.2541 17.375 36.9041 17.2312 36.6166 16.9437L35.1541 15.5H33.1666C32.7541 15.5 32.4009 15.353 32.1069 15.059C31.8129 14.765 31.6661 14.412 31.6666 14V12.0125L30.2229 10.55C29.9354 10.2625 29.7916 9.9125 29.7916 9.5C29.7916 9.0875 29.9354 8.7375 30.2229 8.45L31.6666 6.9875V5C31.6666 4.5875 31.8136 4.23425 32.1076 3.94025C32.4016 3.64625 32.7546 3.4995 33.1666 3.5H35.1541L36.6166 2.05625C36.9041 1.76875 37.2541 1.625 37.6666 1.625C38.0791 1.625 38.4291 1.76875 38.7166 2.05625L40.1791 3.5H42.1666C42.5791 3.5 42.9324 3.647 43.2264 3.941C43.5204 4.235 43.6671 4.588 43.6666 5V6.9875L45.1104 8.45C45.3979 8.7375 45.5416 9.0875 45.5416 9.5C45.5416 9.9125 45.3979 10.2625 45.1104 10.55L43.6666 12.0125V14C43.6666 14.4125 43.5196 14.7657 43.2256 15.0597C42.9316 15.3538 42.5786 15.5005 42.1666 15.5H40.1791ZM37.6666 11.3563L39.1104 12.2188C39.2479 12.3062 39.3821 12.3033 39.5131 12.2098C39.6441 12.1163 39.6911 11.988 39.6541 11.825L39.2791 10.1938L40.5541 9.0875C40.6791 8.975 40.7166 8.84075 40.6666 8.68475C40.6166 8.52875 40.5041 8.44425 40.3291 8.43125L38.6604 8.3L38.0041 6.74375C37.9416 6.59375 37.8291 6.51875 37.6666 6.51875C37.5041 6.51875 37.3916 6.59375 37.3291 6.74375L36.6729 8.3L35.0041 8.43125C34.8291 8.44375 34.7166 8.52825 34.6666 8.68475C34.6166 8.84125 34.6541 8.9755 34.7791 9.0875L36.0541 10.1938L35.6791 11.825C35.6416 11.9875 35.6886 12.1158 35.8201 12.2098C35.9516 12.3038 36.0859 12.3068 36.2229 12.2188L37.6666 11.3563Z" fill="#B16C4C"/>
<path d="M68.1791 15.5L66.7166 16.9437C66.4291 17.2312 66.0791 17.375 65.6666 17.375C65.2541 17.375 64.9041 17.2312 64.6166 16.9437L63.1541 15.5H61.1666C60.7541 15.5 60.4009 15.353 60.1069 15.059C59.8129 14.765 59.6661 14.412 59.6666 14V12.0125L58.2229 10.55C57.9354 10.2625 57.7916 9.9125 57.7916 9.5C57.7916 9.0875 57.9354 8.7375 58.2229 8.45L59.6666 6.9875V5C59.6666 4.5875 59.8136 4.23425 60.1076 3.94025C60.4016 3.64625 60.7546 3.4995 61.1666 3.5H63.1541L64.6166 2.05625C64.9041 1.76875 65.2541 1.625 65.6666 1.625C66.0791 1.625 66.4291 1.76875 66.7166 2.05625L68.1791 3.5H70.1666C70.5791 3.5 70.9324 3.647 71.2264 3.941C71.5204 4.235 71.6671 4.588 71.6666 5V6.9875L73.1104 8.45C73.3979 8.7375 73.5416 9.0875 73.5416 9.5C73.5416 9.9125 73.3979 10.2625 73.1104 10.55L71.6666 12.0125V14C71.6666 14.4125 71.5196 14.7657 71.2256 15.0597C70.9316 15.3538 70.5786 15.5005 70.1666 15.5H68.1791ZM65.6666 11.3563L67.1104 12.2188C67.2479 12.3062 67.3821 12.3033 67.5131 12.2098C67.6441 12.1163 67.6911 11.988 67.6541 11.825L67.2791 10.1938L68.5541 9.0875C68.6791 8.975 68.7166 8.84075 68.6666 8.68475C68.6166 8.52875 68.5041 8.44425 68.3291 8.43125L66.6604 8.3L66.0041 6.74375C65.9416 6.59375 65.8291 6.51875 65.6666 6.51875C65.5041 6.51875 65.3916 6.59375 65.3291 6.74375L64.6729 8.3L63.0041 8.43125C62.8291 8.44375 62.7166 8.52825 62.6666 8.68475C62.6166 8.84125 62.6541 8.9755 62.7791 9.0875L64.0541 10.1938L63.6791 11.825C63.6416 11.9875 63.6886 12.1158 63.8201 12.2098C63.9516 12.3038 64.0859 12.3068 64.2229 12.2188L65.6666 11.3563Z" fill="#B16C4C"/>
</svg>
