<svg width="19" height="18" viewBox="0 0 19 18" fill="none" xmlns="http://www.w3.org/2000/svg">
<path d="M3.5 13.5C3.0875 13.5 2.73425 13.353 2.44025 13.059C2.14625 12.765 1.9995 12.412 2 12V6C2 5.5875 2.147 5.23425 2.441 4.94025C2.735 4.64625 3.088 4.4995 3.5 4.5H15.5C15.9125 4.5 16.2658 4.647 16.5598 4.941C16.8538 5.235 17.0005 5.588 17 6V12C17 12.4125 16.853 12.7658 16.559 13.0598C16.265 13.3538 15.912 13.5005 15.5 13.5H3.5ZM5.75 9.75V10.5C5.75 10.7125 5.822 10.8908 5.966 11.0348C6.11 11.1788 6.288 11.2505 6.5 11.25C6.7125 11.25 6.89075 11.178 7.03475 11.034C7.17875 10.89 7.2505 10.712 7.25 10.5V9.75H8C8.2125 9.75 8.39075 9.678 8.53475 9.534C8.67875 9.39 8.7505 9.212 8.75 9C8.75 8.7875 8.678 8.60925 8.534 8.46525C8.39 8.32125 8.212 8.2495 8 8.25H7.25V7.5C7.25 7.2875 7.178 7.10925 7.034 6.96525C6.89 6.82125 6.712 6.7495 6.5 6.75C6.2875 6.75 6.10925 6.822 5.96525 6.966C5.82125 7.11 5.7495 7.288 5.75 7.5V8.25H5C4.7875 8.25 4.60925 8.322 4.46525 8.466C4.32125 8.61 4.2495 8.788 4.25 9C4.25 9.2125 4.322 9.39075 4.466 9.53475C4.61 9.67875 4.788 9.7505 5 9.75H5.75ZM11.375 11.25C11.6875 11.25 11.9533 11.1405 12.1723 10.9215C12.3913 10.7025 12.5005 10.437 12.5 10.125C12.5 9.8125 12.3905 9.54675 12.1715 9.32775C11.9525 9.10875 11.687 8.9995 11.375 9C11.0625 9 10.7968 9.1095 10.5778 9.3285C10.3588 9.5475 10.2495 9.813 10.25 10.125C10.25 10.4375 10.3595 10.7033 10.5785 10.9223C10.7975 11.1413 11.063 11.2505 11.375 11.25ZM13.625 9C13.9375 9 14.2033 8.8905 14.4223 8.6715C14.6413 8.4525 14.7505 8.187 14.75 7.875C14.75 7.5625 14.6405 7.29675 14.4215 7.07775C14.2025 6.85875 13.937 6.7495 13.625 6.75C13.3125 6.75 13.0468 6.8595 12.8278 7.0785C12.6088 7.2975 12.4995 7.563 12.5 7.875C12.5 8.1875 12.6095 8.45325 12.8285 8.67225C13.0475 8.89125 13.313 9.0005 13.625 9Z" fill="#D6F2EC"/>
</svg>
